<mxfile host="65bd71144e">
    <diagram id="HIP3nbAZw_EuaXWnEj3U" name="Page-1">
        <mxGraphModel dx="2232" dy="1531" grid="1" gridSize="10" guides="1" tooltips="1" connect="1" arrows="1" fold="1" page="1" pageScale="1" pageWidth="850" pageHeight="1100" math="0" shadow="0">
            <root>
                <mxCell id="0"/>
                <mxCell id="1" parent="0"/>
                <mxCell id="7" value="http://ics2o.mths.ca" style="swimlane;whiteSpace=wrap;html=1;" vertex="1" parent="1">
                    <mxGeometry x="-805" y="-40" width="760" height="480" as="geometry"/>
                </mxCell>
                <mxCell id="8" value="&lt;font face=&quot;Lucida Console&quot; color=&quot;#93acb8&quot;&gt;&lt;span style=&quot;font-size: 36px;&quot;&gt;Triangles&lt;/span&gt;&lt;/font&gt;" style="rounded=0;whiteSpace=wrap;html=1;" vertex="1" parent="7">
                    <mxGeometry y="30" width="760" height="30" as="geometry"/>
                </mxCell>
                <mxCell id="9" value="&lt;font color=&quot;#cce5ff&quot;&gt;&lt;span style=&quot;font-size: 22px;&quot;&gt;Insert Lengths&lt;/span&gt;&lt;/font&gt;" style="text;strokeColor=none;align=center;fillColor=none;html=1;verticalAlign=middle;whiteSpace=wrap;rounded=0;fontFamily=Lucida Console;fontSize=48;fontColor=#93acb8;" vertex="1" parent="7">
                    <mxGeometry x="-98" y="80" width="355" height="30" as="geometry"/>
                </mxCell>
                <mxCell id="10" value="" style="line;strokeWidth=2;html=1;fontFamily=Lucida Console;fontSize=22;fontColor=#CCE5FF;" vertex="1" parent="7">
                    <mxGeometry x="12.5" y="150" width="80" height="10" as="geometry"/>
                </mxCell>
                <mxCell id="11" value="&lt;font color=&quot;#9999ff&quot;&gt;&lt;span style=&quot;font-size: 18px;&quot;&gt;&lt;b&gt;Calculate&lt;/b&gt;&lt;/span&gt;&lt;/font&gt;" style="labelPosition=center;verticalLabelPosition=middle;align=center;html=1;shape=mxgraph.basic.shaded_button;dx=10;fillColor=#E6E6E6;strokeColor=none;whiteSpace=wrap;fontFamily=Lucida Console;fontSize=10;fontColor=#CCE5FF;" vertex="1" parent="7">
                    <mxGeometry x="5" y="250" width="100" height="60" as="geometry"/>
                </mxCell>
                <mxCell id="12" value="&lt;span style=&quot;font-size: 12px;&quot;&gt;This is an equilateral triangle!&lt;/span&gt;" style="text;strokeColor=none;align=center;fillColor=none;html=1;verticalAlign=middle;whiteSpace=wrap;rounded=0;fontFamily=Lucida Console;fontSize=18;fontColor=#9999FF;" vertex="1" parent="7">
                    <mxGeometry x="17.5" y="370" width="75" height="30" as="geometry"/>
                </mxCell>
                <mxCell id="15" value="" style="shape=image;imageAspect=0;aspect=fixed;verticalLabelPosition=bottom;verticalAlign=top;image=data:image/webp,UklGRj5LAABXRUJQVlA4TDJLAAAv7YKNAP/hxgEAMqptT8bWsf9PumrraJxt3zccRpJtWuc+2/Z7mf38HIxt2/5OAwBAGtwtuZ5A5iTu4Q8yF2ink9xdJvMf////7796AuQPCPQKu8MOp25HHAa/Vzvi5/ybLR9/2ujDpl64JNmjH+GleW4ulykCMUPr3+FyZ126NLh6O5xI7GZ12cm6fWRWNxz3jc2iF5IzF22uqCD/SwRduBw/drdX47lIF7VvCjbQ2i8d5S8Qjz7GPKTKRokSQUPf/NR5524Gx/pQuTf0zL/nfrFJHI3HRcUhQ48fqSe7V2p5PRXNEsph0LaNoJo/7a231xOIiAnIP91hcvYhFUeISXpsvGRVDlmRFqbXiiqFB/1LbsmqIoe83ba1OY1sbQqkFCDyBcsYsZNqm5DTYLzf5GO8CWWUzjn//28p1prrChEhX5fOi9dLRP9p0bYat2KuHGzJQy6uCRqwk9f2y9u2bXrT2rYl4RcIKBgIUmidntjQYwJpKhxDG3GCXcX//1uqp54qCXofBZ+el4j+06JtJ2wrXQESQhA6Ex4xxhin/Zqc2NNP//HTf/z0Hz/9x8+AcNG0ts62VJvZHyWFpn58evxo9i3Xkn1aP6rW7VkRwVt9+vjtJf+S2+OTXxQPqlYfWUkOFqiWzgYX68ePLzmZvunTtmSweFy/5Gb6+NiWC9oMfUX4U12VygsdMzO3qgtl7f6VqUnbaYHg7ydy/ExdXBQI1p9SLg8wKunDrEh/ied1Ip7026GwfuLEFXD1/qwPS89VfRAH03mBbJRyiX1B6Xk9vBfVJ81mdM/He78AwRowCGaiXyIOgucv4W/L7sAfD+WxzVnSRk9fhOQDgxIoRM1tRg8H3eMz0sIJDnGKAL3Dsjuc1Xtq0WVhwJ+iP2Jg6BSpXb5GleCw4olpwUk7OUNjRN8T9nFdGus9Fc/furSmDmB4eIm3hGBRTs8LsLwjhHi8LI31qVBQcYZXkMMGsysiAEi5RyS2tQFzYhcCPf/8JcLcObxeq8CrFtQRakvKnR4lvU5m6qqeAK0TTlCtGg7AzhjmhXmo8u28+4eTfs69KFB/7A1iFbzxypKySj4gBlvUT3VSbQdwr4VamaSNUzAeLtXmntEljE2q61ZiJMkbpDF1RkRdgAKjlPkBKOYbtYIzyHjXTmj2rGn647QkoN4DcKZiK2INPsI5AYWkpE4V1KuETSpSGidrWnOLgJMj2uu0FR2fjhOrVKUxrWEzn4Mxf2ZI4EfBNXBwfgARpjJtm/ftRngsiajj0Jf+UGwgn1XJtcer5+CznHz4UlJPCQ3ttVowQtRlCJWX+olwZpkI1efASmlNybq44pkeqXMFSqFJTJ26BVdCBEBlw3WmM1P5C6fB+Tk7s5i/ss8LcrqtTl1dElFp1aInhJ50ZZUSf0afuvx651d9hCZduw4IHGSTqEXLfkrs6EGm/lIDCprEVFm3KqG3ZqAOxBPP9TPCN9jJ6qCCxvkzs/Pezfp1WxJb6gER+pmxoiCHYxcvNKLwpHo9N5hekFhCE5F70rHyZHtHbY0kpvwUUkoM1LGldv7485caDhrUoK/pyYWzBPxeb/i6IEIw/eOhAC4ZVBVZs7cDHobVgxLWf0N1nsMcCIOMIZP0OSI0gat/YRahyUypkVAi8AxRC5HXa6LRYUK+3/kLhB8IJbFnHySQcHqMIABmw1jVKREO3KQghQNDipxAgBc/8yOMgkpM5VZ7SHhO0b0v6DEC46W0hPoBQLo6BTuCNWl3fnX6EzCGoUFBctl+uzUs4oGUy0w/O+3yQdRfEEIPDAd0McpTCDWGp7Wzmjm/uNe4evWZOp1vPTJvAu0XtIAMgFBOYlqnNAzQChHGz18CeIO9O+1acqLtCeBJeOtWuqS6C1NR2xHsvu6xyYGLBSONep0CzpdXiWSmUieSa00AGtPhUo3smTNYy8D81yUn2h4HegYtyogamgLr9qH0ACvn/YtrAaiH0QnDw2NNrn3W3SpOX0I8AZ9f0pg+4fMFvYW8DRmh4OaWCqU1yoPjY06hulhsrWljsDlLh5A+A+Oq3dfMslALArCypOGnJzYWFuQqTQatnMkApqR8rClpcBj6l/olgSkcrXoWrIO3LGQfRfmaDG5c7hrpeNZ1Kuq2ieHnYrG9qI5+yPsf7T41Q07bJhKr4+u0LphnoXkIr2iZai3UH+A4/7dkONMvCd4n3hlanrNmisxUiESQa3BrUReF9GRgWsRridB+EQvWjCPZPl3Oj/xjT2M7+NQkxuc4XnLJ0+hLgDYA9yDCbrIiXbCCOAKkidRow1Mmp8xENTEY+JvQLEll+o0TWUsqKaqUCeb4JCkOqnf8o0JBc1llB5eE70/NdjSpu1AvjvWxm9a2o0h1Yja+sSSRYXG4rjW8LiVeKUabEK+r2oNZrZ5CDof3pocP150yItN+EcJiqDEOpJbZOaSiDimpSpST84/bUaX9wtlRLh3LUoTpm98Rsn7JnaTftjG2hSNcuG1H5Hbf8rEeTmMA8ufhHg3DmA4TR/fx7WN6hR96ltB5kj8Pbqq3kTtTtNtRpfXHN3xmQZnMIyKO63Q5sle83cMnyd0b2fMK3a8f5/TH8cS8Wzuy2eNLFqZ+RxnjyiN6sNbG949E1/n62peNd6qOJP7Yv0Y4fczV11Nsx5vaOJZfMTbKjyHTj5m63G2UObOLMc4j4lU1R1/gvXJml3HOI6JZ5+c3JSiJyxn37Djmt6NN9eM6M0vX29GnY3iQ6o8RI0wfP37LyCVw/eTNxk1sY9wLOVjgpk9rVg8eezamR3DN6CuZ/vHp8ekx69LT49pftyzlz4p2ewyS5V3yOCLJpsdwy1NSsvnRwy9liQzaMX76j5/+4/9swnb108Mze9L6Qx3WnK7BC/+SkvzBmhM0eIG3LCJRerDTMjYsYV5/wMnBrnVzOsYinpa46qE5DYPD44I+5M42OP0iKGfenyg9O/VigZQ9lPBw0sVGEsoZoBh+vwX3kXZ6xAJiqlHl7r0Wu2S/O/xQMhcMY+OSPxwhScDq/QojWE7STIuEFfVL3jtUTLnYvMNikabdTdLvHTEuD3aIu9m8u2KX5HfT3mumaejm763gFL8bZCPHhCS+T2FUr6OSi0FIQveuipTSaLCbvZUUuKd3VMzjfjfo/wLdBS5LqEywiPvFsHvFKf2L3WULPddNcWATN9qNBr97wyJXXDgjuzAwj/tJMTiNdkAlGUJsg6IAx3V7ZTE87QMbmecIkYK6JBBvHvvghFWV0pIa66jq4eARdrYID5mGUcwPvUxGXB0rmoy0XegmsbqI0AyM9wOWMa4uBkT9zmudaQU0IAxdVTxFHIG6wOqVCljGuLYQwFFMOg96D9CBxBqUQAeIqJrAtsgitVcBljOuKQNEm8ZR99M5E/YfdYiqq8lzywKzCkZUS9D1lEeAZYyriwCbaMso4YGBb1PCUkDUBDsZEehkUQuBipxPRY6NG4PR/pxhpOugCLBI4BXoOIBeg1F838mEWp/907hkPpeWXW2lnJIr8oi1JQBJ4M7AT0ssNA51gRdhoNi39V7Jzh86EB+UJLCCe7mDhwzDMPMxzqYN04+LMGLaZwzclSBVOXW+IToqWcLOZ5c5US8AcKxZHJQw7kVxY3yIHybAwwgSmU1LUJFaxBnhveDUVuYkFADmEb4Dn5aCJoUO8mtgiQz11+rjz3CUHx38z5toEUAi4FHQokTEWyMkgtQGvihRcJYraHiBeHR7p+9KwdDXfADHBrDhROA/JYk0HQIKNFDJ4ene8tAnvCcFQ19TBBGYs46t5EHBKFHYtoJ8/Oxrs3SwUb4e7K4Wl2peIyKQQ3jLyRimGuxxajwl6GKepoZbMYtdBDvws8Exn2c0UJ0Uah3fg0IwUZ5hSby8WuwWDkzSeSXYXZqx+1OYqSwmNkVt+KmdE3rVFBCLek91R6PpeJpcXGFliCqMudkUa1HKYpGQwgxbUmBSkROE7hVAAhH5qMU3tHhSAYW+DsMdfsrCgnq7PZMr/GEQ1PTMLnmnLedgMFVnOyGmlJMnDKAWxSIGvqfgM4qZHZxIjHQhHugrioTJcre8Wd54lEevAvUZOceXem7AGsyswqg6KB05lrAzKYGJ/WFS6NYBMI5nZ+MQ5QECmCCzcEQYJcSFRYgAHWx20JAPX0XGq2lXcwJPXHDgBHBViAGZSNuBs1pcte7NFNKKqwpa3Q54KyeWWMriJgl8YEEiemgAjogBVOQZKRAUF8nIH15FsID+4xxWi9pEYaYJokKtDLMFaCLYOdBowdmdEWbFLhCxFTjwg7UkFpQhr/Qs0LNUAK8iUHzh21X0FICQV1AEv0mAzhid8zAzmg1mngtaNg5RHkAGOWcGSZVweDNQ/a1gYDQwlFAr4orXFJAZSH2KmZuwdBFOSABHRTzIDjJi1lvM4iYRzFUgCxzOd+GwvoBEpJNByc2K1xPsjKTzBe2p7yu8s0klxUmiNk5iTprDC6lG9Qux04dSF+jCZJ0YtiQvCSPCPRQkmJ0D6nUns3HxioI4Bx2X8+67GPoUIz8hC8EXMTbn9Ehn0JYZx3Ivxq9/DcZ7AlsJsgoUAmKR+a1RmRWMBq8iGRQsegtqOUnFiC+gGDAbCz6OUNDiqgdcOOYTGGOvIZ0QKhxbuRVz2zbFqwoidgvk37RncRtBivoIa9kbcNO6wC7UI0pGDPz+wEMMVViuAwP5ePfCLF4hzlJVFixzFW1pFAzLvKLZaLt2wd4p+ooIwkMqFikuurw8YntV8X0KPT7nqEAyGxFsHF+CfPBgORBs2Pncfjf6I6hFGeLVJNFuoZ7FnEjP3c4nOF1h/gUfe7kr8anFQWqYTwSWFCqrvRDzLhK2ucXrwOUCXPu/MNs5k0XNBaj6pYmLPYlpQhTDBfZNRS0U/XgfeTPuhRcFhoM+zKjsUYRBO2dFVkWYd3gV1nPchFFWufsFVvSmD7wY9GKlj+FeCVVDI7SgKPl7pqYFxkAfgk4qjigEX8/pVloXnv19HZaw833Hq/Re0W4bRAGL2ImijS79wZu/5HA7kqgmxS7mERyizBmBBaPXi7SILJMQo9pgS1Ievg5cEXU6Q/Ez1pjlNX5VPWPh8byYnTFBmFVmPPqMKVLDczsvJzH0FdGlhLE5C6H4HHiKXU/FAbSzfEXD/MxQdklfGRsPkoioOGrD6WzHIurPhXMbpS42sU4Aw6iGExFg6dhxQlCWzBLvhPNqLhC8gvqDHqBzgDkPpec+ARyQeB+IRc3V2OGRaocMylqoRM9rRefoSPhS0Sk5LBHg8ddB9ZV2e53rTugH/UXkstAreFchJ+Gt0xwgaOqYvgVkUNZCFz2iXHolMsAv7EQQxzEVXur70jo2g88e4MxBsQMIoXdagkUPklQfbv8Xo7SFzhPZzDoTyCg9tzIr/bGEh4ujhJd+v2uuP6nKaQzkaYFEUwKHyUSgaZ0gt8ORWQLPnXhdBt/3JClsBIaABJ69Gle+vJKttMhRgoLkRP7OtG78CGaHQZ8BynBgdN2jnoEUP9syqAq7cQRHnmdZvPngfrtSd2+y/Hta90LAj0tBLWApDj/nJUQ0wQbfNW/4l8T8ze3d/T+EZKsPeYHhzmKqKRjtCTsNacNSzrH7JgTHzTY017uOZ43ORY/R3N79IzXd3zZZC50n3BhkdGx8gE2yF0m4kWUwEBoYeZ3mjJfXf8Alf+q9h6vjgpz+7RyHvqhObLCDAwipYvcjxoLD26zhLpfd3vN9w8UUvOC2yVZofBRnv/AC8n+hCs/eYmwmUKcF9POcyePE2yYt/clT8qpVk82/eekg/tTnDia6MeKs43pMJeY1XyRp+cM9Lemb2Aa5Co23ksPoTzy2QKjRmyZMSy4Y9ZInFBHCHs0dWDrMwn2Ts79Vr5/jkqvjybiIUrhrjnwhsfTmni8dbuH2B48RTbuELY0larjUzPHrHT4m8RN/uh904a7J5N+YuvhQDEI0hzmeMoUEC2nuhFLbLPUdHTf00I2mT/e/ZinCyG+RlAr745fIqp/ciZutzk4S+ujT1UXqsNBNliLqlJ/eeVX1w9lVVv164M0lIl10moASFInKX3/YGOGP3N+d9zgJOxJ4kk3Ls8uwjL/Oil50kiCQxSxFWNpI7O5qnoJzcl81PX6bWctA6iukiVmKiIfEP+ug3i0uz0AbQa/YvdSUZB699CLwq3ExBJ1eJLj7Jk8R9XOfvztoF1HD6NnUP7Wp+ZAlKfSnxUA0XqW4TEU01HqeDzASn1Z6e6eZkmAOPimGo7MEd5epiLDnAyw4GJ2UQwozBrjZMFYJ7sOPGaNZ6FWQ/Kt4fwXhs7khVQNfDEwnCeP9TbYiYkcOQ2PM4L7hzvnsXsVSGmaVJyn0g7sEVcYiopH+hFuJxEPCCbjNmCVJTp24anD34YeMcRU8pP2M9TpJe8+aF8A4isnMGcsMlwiqkwuLquLHjLGtsjoeyF+kvd8vakvWnMQUZs08/kJjE6OG02gl8o8fLo7boE3OzFNO3M5csNUcHwPmk7Tx/pWkwX0hoOleOTNPKGGvQWxVJLCr0mzkWRngLmfK1OMkamSxO5gLI1Zd5RrHXPVS3ZcBsmtuI+VI65Yt+8Q9y4sHZcbrKOrQlAA+ZA+KGGqQtwWmLHJFIgslFnF8rarsarxAyT/dlQBWmTWfmKA0qLi6dszS2sVShK6sF3A2E7MlgLvcwUlUh9gCv1Bnf0+PrbliUJGHxbVJT+4C7AsA95mDeDpawr24hV7bqSdyS7Bav9UHU/Rhq5MmNGWMv4ZdiafW6xbuz1QqFeErAkfKsYjZSsoWAFw1o7YeWdCTAHq49tyVUzEy++N02QrL1ZpsJFhKepSm2CzfhSJ0LDaQVFf5dshktQyFJBgj1SWTKwEKlcKENTYDzkfH+J0/JmC+XnuBtQumUjoz8wEbeVaV0zJyZksMSStMzIR7KJa4yry5TrlFeoavw2vGcYMv0iUEIa4EYTPj5MPMVoNFNL7XYcmt62Lra5CdmmknSu0WV9dGlV38Drh3giK3ZZnZSFcW7g9ZJgQm8gDeDWSpCQyvOwOCLA0YnENddai4POGEYHHFvKnqrsS1PqhyvTfdq8210lIcw9XJ+2S+KwAxRChmMSNQI3gXwahBYncA2iHMErtTlowx4KDA4GajGdIqPZb1tKOZg4naOuZOr11UZoWJ3xJUWnFflljNJjALDepuhq44nRHTgjSR4LhWXW1UMS3nNXBkW2g+3D1HkVKsuM6ax1OpRGq+XqyBwNqVf22XDowUjauI8E5CkWYMm8VsxX3ABrNbQpoKxIpiFriJcAfYBqGBuDNmMdwtP0eukmJw6uradt64gz8d81HVrjr3rSO2JCIsEsss7ViYmdnErlH9CJGYCbYQZqaUJiuSBYdKNaXNkngmUPQv9Eir4eIMzemuFtdKPmc5nRk3qdoHr10/6Nq098JLroNZmbHxo6JFZyDXZsHs4Dq6NkBCNUcN0iFGxYtl+DV3MCuy18ZsRrN31HC7/ZbjGMGt/GQz05G6g47NxK4XAes8C13JOJyD3Lxl4IMrfrdhl9bMbBNmxnEHYMTo2BsQQ9kkC1/yFoLOiDlJNSoLdp/1GI5lrxYKNv3nru1kWjK5K4UJzstC3FQuQD1CsSpdcYcs6y6oUSzFD1c2urnpQD0ML04Bt1mqQSAfcg37Fge6CY6x7cY5HbcMirLEfA3lK9dV5W9ZOrbB9VMcXZ+vcIvf+TUxBJ3Z9Z9cpMCUFVNLimShDEqdBzVJpCTdZxyZpl3otVkCpldL14LSbetz/N26ZXAzUGKR2NDtRrDb0tytgxJDuO4usK44GYgOLaLFqQL6EnjhLtkg6UgyY3cNRn2YZa0a3rLfS8osFFwEPiY6rYo3s8mKCJLttrsjImmTGRTcUSQJToK3MLqEWXVYjifOuDJgRs4DmE4vbXj5typLINtgyhq/rbM5yWpX4+HC5d2QdRmwJalYMiRlXy+rwpVL1w94imFcOfb5hb2NyN/tPf/dMtRGljuYqJ1hKNpRLSJINjoDoEIKO4MjUatOgCi2BIFGw+TnDWwEMeRNLmIHuuFAPnWJVy5Y7cCxPHsgU3lspBZeshELG1TfYV03eAxXBdPhAniZpGIlZNw38hNiYJfSsIVEp+eAJWxEdOZ8NvYls4g8Mz4CBDuY1BkLdyVa7H5NTQEJn4Evh9kEuPgUCF9K4prE1Qflwnv7oeXdjSVD8fdO3Zg4ATCLHePBOMRScFK3Bbobs5nZ0kFxgleY3TkSrAgUpwQvsssVehKUGTii/w1sSl5vtxZhDjdlPPaYJQ/zfyjRfn6WvcPCVQ6WR8WQ111KBD73PXdC99BosIqhcsGSTSzMHj6vKnuwszVSt5P0nMV5z5QuiSWgGJ0Zr12FJdQqZoADrCWtZgm3TF2bheC41JFWQ98wjTXMPPaVAOXdG+afoHMRZBFW7MimbO/+vuM3u+oSvAH+TQLvhBtk3RSSUMCIBNWvJE7Yc6liOgOfjWMApZ6UwWndruzArT3+rchzS2Ep0pYnz+fYnEWPc04sNm3+EEDM3wIklNvk+IfT5zPKEpbHrrFjARewzpP3ZycT4ZnrMcqvUQa4z5rptOhBkxrCiFCHpgr6HUqfinZ3An228CoBFbKeQWmehYGGRBQ9tEjmN6fO58Zfpi3ugV4UNfZpwLsTzKP8B/8tCWWWXY1jMihkFK6rHRwV2xMuBuC32Ytf2we55m9LImVmeXzKsvs9XUaSx9Z7gaqxRQc6B+FZi1+P10sikAZjwE4ftin38sudSSJtCGKM9C8syWbMy3z+5srNw7clImlHSDWIVDhp+1L5gniWuku3E8SfwnVrEpHN30rc5Q/K+4/8H0YiqqRQEdtKxD8yZ4rNGDLhBa+Nr8HYI5WvxHmugmFPgqfhpkqkceE2eya8wDP4RBgMb0Y8dvfJwSqPdxPxCCQN01IVCcKHzPntHCQJEzC9VPu+xCVbnmXxTlE214HUmxS0xRbukC2/i4YgPuMNiSpLVMNDYjEdEn1cl6N49GVDaSDhY0795qXom2jMM1sLwe5lnOKzeIdX1wlS/2LiVfg9Y/c5M/11krx/jnuRAfx9k6H4BUZ5ElvUP48qgFQJFTqi/8yh36onl0A8TbuHZVpAq5SNSOYntsnax19/SvzHL3/LI57p2zaD0iF0q9gyH+FjrDfxeQqfUzaZmp949NokzbRIoVJ+BcXut8qjSWGGzxFlAwsel3GzuP+w/UFj+Mtx6defXn98IY+hVR5NVXCae4UXObbUjAfYk6Hebn/UGNvy47QsmPsLf+XNysjIcJpQRqVVim+2P2wMfDlaxj+JFnuNQ4elt99zavGSTvSxUyhJ3ymbsnR/s81P/EqRJdGiMi0xK3bg8MoWX/752maIbFJCVPWef5t4Qsndn2mvxTZD8W2puP9Pyxv8GYOYmZnqSUF+lX9miw8MfScDXNmSPr5se4R1bHT5jiTVjWb1X6dyHZWpZeNqoDExWsrtVbt0kSK76ZHK3MhpStTewf/yoF+3OYrH7t0QMXum1guVRbeYtuQb0PgeuGUXGwZ96SbVvzIkhYpRTA0r1MMs6SoiR7H5toyV8Ai2u0AcPvIhsRAgn4Nvu2ASc/tF0rrOkeSuqpoSlN3vDuJQZX9zUJ7iOmbE/0zdsn3waQRjODELCKJid/BPuYE+p7lBFFOklaClPAV/W0Z94Zb8cGuICE27CUSSIIhmiMiX6S8N0jOcGqYa3abhHiH+aau5irjuT9HBXCF9SVTBJD5b3JEiy5dJVb5kfu0Rlx13XZs4W/EY1f0qmG3XkmL2N7gq7Yq2126XyJcpNLYp6TZhVdyRP1g4GzCG+WPBPKpbw2EncoPx0I7rIoVesmZm0RWlpg9+e0ek+5akvAVHe4Jp8JC2sbIj0p03SVJ1VbGcKYrtAVIO4/obSVTHXDof3IS5EkgKTlXlzGy/ugSw+Rbh/wSTcuo2oXw27paNr0ObGq2+x2NkzGyfLQE8UhLnPQvBmJrd76mUG3Pn6yA2kf2VMxubapQAromSODvYllyLvFjny45mbZAxjf33p5xBFAE2RN9iPFC3xPZPyVPbBnwNPI9dly5tKrqZ58yKDMPgO/n/FFjAf0C7csHx8O8SUtWSpC8P+ve+VuwnTfEQixdYwOsSUN1C61/TmbMHJX9qe0TMvj+Oe+eXiO8nDvGNKBJHAtNu92aWfR8SRPacZS6Zlm0XacpEvH6Kt4Rv/8aJ3HwY1fwF3rGo1IpeBX4v+D71itEwC6CGE+qA/rZjx1SdTwKoPa9ei1ckx7lTu9JZczCtl2FUrDA0EZkViYg3XfEqNj4mFeFSzTmiU0xmyLi8oHt3uSlWQktG1K8K3hlQBfKnlRau4FijKBj/fjfOxUl1wOGZW8citTCcj1akovrr03BgZowL/gxQ8mEgDh6TcFETpxc5OBQOUnNzVUIb2bB9L1zx+A1B5I1ZVoZInHDN6Cw0A87sEhPbdHShbQdE36UV5q8HQqUvjN92X+xz4GVkdyed3Oo7MK1XTqfalm7xQxek/qsOJtUz+zxyj006hl6mRTK9DmBcC1z3Zv2gAtkLRHaLQetJXjEOwLAAzY7RnOgy+Lx9ivzHR58zEaVFGpa5U71Hced5H3zSUYJaETej6gWDc1A0bufAxzhRk829eHe7plRL5okJHfOPO0EmLmjH3bQHtp90vNiCqpgZgtwY8D1CadsA+pI5U6Vwi6+JksG2BY6J+N7cLAmrhkx6rdH3aaRCSQNjy7r5IRJI/N35DsLTESN3SrJ8xbcE4AVzpyOgh7jh5R2QZ46rVIxEJHTy0BZBtWex9TQQJ+K8f5Pq8zfuCGXKDr24NETBKY49gB3UsiuD0wDpwehgjtu8RipICTAC1HZWTgp1mrr+dwmLFEQG+5csIGRfBS9V4UiR2ORgpDCf4/7XHqg6MlLn0cvEWFlpF5cRE7HlgZMWvBSIMby9aFPV5D9TcfC1o96OVMxfWQLWEa6g6z894zSPCFCjZfuUfLFdEpiW0IgAUZi5UwtDWsKX0q5nqMJirLvJqyJ5ky23z8D9omxewMUPFEHUyNUgAFnc2teBGBYtcNLCTIjaOhrR/07QNwLewlMPpOKwLkYRiwfkAtbIISYzmHEJyiFwbPD7D+kvcPjg2FI1I1ePwOz7+2Yv8salV4MkA6g6w0hFTMwxcRFRUaYuB0ZjlHDxNn3GwrgLiOExArGFM3a9k+OS/YTIETzzxbaMTjV+ZfgOP/ppX3z6qBaISP4ugL0Yh3mX/5smMmhb2kISgF5HYux5PSsLs3R/AnowkQ9McOOvEfiLyV8JhJarR4Si7kliIQqi5r9T86kCdWQqj1LokhuhIJgTpaqlXbzBu4DYx+mZrUvQu7S8DvHoWq4wJC0y3E2BeB1IuR0dd0/KQZrk84G5CyMxlKmRxlvUAcSoamEL/dajKC73wra0Rf75fm7RoDGt1NE3/Csoy8Th1JcqoUvftuINW9Ad4ph5gYri21DM8MBWVAVTPPBD/U6bKu8w6BU6OWfPtWwK5qjly+MV3/FhZgpsKl5SIvBBrT/AOVMXv52tUv/OLbZSfJIDMigUMZ4N8aMCLHDoqH7Tpix5MPhFJMk7OUjpvXf30P58D0FPBVahmEERF2t07CYNU+OAhVe32BnbiSTNwvxfsI7N99PGsw70mvpHuQ7Zr7WR8HKpiVtSwooHv9891yjTyFDlP5qGvSZwCyMCxf3adNxFffn4/rn+5IYixqlXQxlxWxEGM3WYRQTUIGETXn/eQdcW1ushjGfg1/tGNbVM584soalNqN9j7qwbv017q+90/lV/eBK93Slvchfbb0vtzaoOUvKemtYVpVrHTM1BmbD6pLfOqvjT7uuPFBLVnL7fU1py3bIFP/Y9vFKq5DFzkV1cH6KaSNOiSIObc8bCj833LcR2mMLTua7PRmk0a7hEOZJfRL5gJIIUp5u8vU9r8owY66hDEJTmToqZS119svTrCmeM/4ambwJ73DZiGphvMhVbX0iyqmUjTlqpkFoIM9kkPOZMKUJdKXGLQNNPoZsshV4vKVlVGnghLAcXv963SyHmJvVeT5RF+yt4ggM/X/oTEKTNUmx8d5DqrAHNCjIX/OawbJli9H/5wpWo8x9DLSINJTw0GQp9DPqDpLmNMwOeqNfBhyrpKpH462w+8G8mzZJ90QBJkX0vfYXlDEbkqc1Q6HVXYLJjrm14zWvJB7NymiL/+cd7yhRS1Cwu7fQIkvZSRoZCu1bSx5VFX/r9z3+ApDkS4vsZ20X80eF+wSMYU2aWRFOy1Q8cI/rJnb+LAUnhTiS3v7IkxMf2Uelov0ijQ01UPuQndLuMbxilHArTX7m0D8kd8mp6WKQSyJ7o8hP6uIyegv1nmoSkMsCmXx4+5olPlD8UPWl0lObyE7r95mfFD60sBZ6Nv/6dT/6oGID2NcnlJ/QRZIgo+wqlBDuQzCD5KfC7/WIYOkxxkZ/Q7dIP1keFHsXAvZBrHsnqPaYdRpng2vyE/voWLQKumVEmafQxnFMYvzriKUfoKyztELnBOQ/wZ4WQ4jIUqtffvDJlaY3f6MA/qTyizx/0C/8/N//6I0sI+tDMuh03RX+KuW6bHIU+LJEXS8gKqNez2OzyRUMkmGejR2r4JVybo9AtfNDJYS6MIFXUbDMPLozID4r5Ue12R4dmMoiLqzY5CtWtd9T7GcqAhJ/Kegpmi2cIeSOQI4zL7kio4ZdwmqdQffjWTyFCwF/j/8btskViJiJBX2jsrAcNglG8/ptMheo2eMZJ7ZIEt/X54ezZyP/ycLgjW/huhBi5Li6iPNCLRn+AebZCdfsABSIl5LlWFdZDr6OjnRvos4WjJdTO8M67gcASZ/kKVd08XIdC0Lq8HSc9s/Dc+4zhqM5Z7nJ2MONiGNIoy+Dn0X68ZoaTxJkfHreJzdH7jIHsUKnLC4NqGIw+xNjXLP+uaNO4fMmZ+IcgvfKpR5AsxdkseAxKbso+TN8EyCZuw1QQncQkJ0yqR6pkuEJZNPoWAOcOPxwhIONAKazChGJCxqki/Y2pUBY1fgNglzcQDnuNE/v1yP3wOSyZjs0QVCJQCh3a4RxGo28AzDMnHpbiuOIg15GA7CfITREtqhHQDpH256LRd0/sh+dumWF5wpGeY9TIF0TrwoYY3lSLHMeibwB8zRgQ0W4UBjvMOnBcA3mOVcdIgJOgHzoiE2u1m/fMgIiOsEF+idOOuSJDRxgo6G2kgr2Nr1sMT2+vYIcYQAr2BtwPxJnWTvpp1f8sxBtveRimGwbNSqJKwz/w9ADgMhMSULNdzHDz1goWIO7kchqxo5hOCAOXHnIh3DDt6KFGgTtJgkcp7qYpt1DvvCMTZoC0Aj00MK46djugFtTq/G3XBP8tYC5nU8yJOKEyxFVx4gyslkSa7fwNFSBbYAyAMVxRBruJlOTHvpxzm8Q94IsJM9uk2BZNCO3y9IfGUMWAWgtIZ/eW4DAdQGUw4toaDoaFDmOd1NtJLV+3QS50aikUVymB5YnhWULY+SXxPokmupgkeBmVNFuAOb/rmtMNQGf6ptAw94C2asFrih4xqMFkP5bxzaWe8s/3BbKb844AwyVPHgznhAY1LQRTVCUiIA8tTSC9QJUrjiDMApotCAa+AiwVaLh4wz0RcAMd99cEc3T8yD8A07iItdvfbzD1dAEu7CAgNsCQ4oGcVZWAaXEHIyHh49+h5zmHUOhGArVASMsCehKu6lt282M5R2DKpe0NNvd3f6tqK0Lg8xYZkeqNF+x4vZzVaziVvgBmCTFNERKmwKLM9HyHAKcAFJx4NuD3nFXKrgZyrAoYa18YaeEfCjsxTGG2XL3lAuhAdl0Jsq7FIRCEBAOp5RxEQCPBEOtHpMnuqAuJ2p+SD4RhCB5bp/0zkPlbGHgiCkyEq93bLrApaBycB+rwAccKllJgGNSFyMITSNt04TIEEqArlXZTIUbBdh2E8OP2bgCn93d63ykBVODwkTnRN15wRT/pzzvjoBYSEzNUg6fJzAFkqyAm4F2RLBhp4G6A9/EEAB+GzBxlDfWXDkJURhp/Stb2j9wBI6hgwIwdvdUCcUyKXNHnBLSiIh/osh8s6PGwkI9ldo77+ZMhts7PISWzGEjAwsxYoX394MyXXV+Tv729VwhMZn7zZWNGRfe64hSuZBxAsKoYEgkmKj672nvAOzKcOm+Ks/kwxKTL70SYRYS/kvbL2MIUFlCWn5b2dssGeyHpvnTXK1Jx6VWMCS/4wBhzAT2KgSk5XxUyFsz2QC+SIy2DGuabQ0fYZSJqyds5ZmHqISB/r05HxF7mUWzGwtsroFZ1SRu6jIIldMxb+iZI0G2l3ZIrbUr8DAY3KuUGxUe6Amv89gC1H4PIkewGyCyixukc1o/VMM+KD2+7+TnMHpgfISum5MO714Hkfnn6BrwLtEc/vwWyEjKJCKaU+HVjIeKNYy+DyWgW2g7jwckA9NLYw9glgm+xefWwAXvFzOQg2NGxJi5AA6OHCKiFY4iWJz8ZbFjYB2jM0UCw8eZoJqOjtwbkBXDJWquoTRs9wV7AHKVwhdQxXNS1Awi6gPAJjIFzmrTLihhIRz/vXshTPOfmLRbQS28B/Qvjk/KlpRMTu3gEYTYVhE0DROF3TDjBWHB2KkZoojY3HLxNwNsHX45OzdcBnPqBUVX0slizScKeJSZ2MDCeULhMAWEmgHoIIADVpH5+uSEQgQ9kBviA1ofQ3TQoSPADVp1h/6lojEzggZN5jO73XBTdsw5wXJnY5D1EaPzUpUBKWgR4S4grkfW5aMiCOWF3Fx34gO4AsuGPfmZ+9JZUw1RL4OLBZtapXhzPsfEDg9fVPRLuGDSLS5yC0EKR8tAnhRuaGIndQmFytjOxPXiHoCfo4VPcqFY0IIbmg4is55mRoBElXRFowArbilekAf/FQs6fPp51sIuIUT/IJuzqxmQNKJ4p4Qrw5rRiEWZmJvY1oPArWZL2figGZM2zPSLfeHGnEKZQoV5DJ37+3JhOj6ynRk4Z+zAoP1v4tPn8SRYiHmGOKPySFsHEBRFqTgoe4V//ryrhRzRi/sT5bGGWCOOJ9ZqLutLGeOl0PNIiiZL5QxEgNG+yONPGseHxqKPk78w1fjpZ/L6nHMbmnOtmrcrMOXZPEBZQCKY6NQ3yzRcP4M/l7/LLXNTrz5dRaurMut8TM4Fl+RDx1AbHBs0g9+Heid/TmrWoLy6TSeL3OHvIoaIEmjXF4LqHv/MV25jmL5WoImnjL5nznU9JNLhOt5GrqLHy4oR9lML7c8ubibx7aW+q2uYq6qgmPalJ2Ipd3nwz8fAY7XJ4XzSq57imt/BVnDRrpsPhfQ7veUk3a1QaRHEj/cYCVc+TBD5f7gb2ObyfMdVzTBpMuMWFGZOgGw2ZI4f3qqfahNKg7k74j/mdO9P+YDjK4X1Iqn5O9ysK//QcWJRWn2OC0OvftJmS4LY7hyp+X3N4j6m6SZb8t19aYhvELrngqVLo/jc7RC79fuBhlEdZvH9gVeCTNIlUFmcw+59kMZumr51SR8PvL/Xh7xxFonRSFpzuysD8Pq8Wv4IF03qMAB1mxr7fB7+cbNEjKcgG+bS4wXY4d/QhTbPL5mc62KxT5LNiCKqUT9s8mubojv52Rx+wYwc5TLpxMqhks81RfE6QaVwWw9DvK754kyMp2UpiV6Zn97PYaJ1iVgxHle6RMemiTlRKzj9nk24S5LNiUFLPk4XoJNU3xDOU6Uv7avZb5kC1/h0XeilEsOdBzFM0Cb4shialk+dIgm79W3XgZ5+UjH32yV+XHaLy4Ji9Z8iXhc8pw0Jfc+i5Vod7xEhpZfESpDkzCRCT3uaJc/e+Ak3GYhttHZHf0K8l5HsZ713E578yBb1Hudv9pv9K3Ut47MK2f0fkLT7jUKWTEDNrHDVngDTYC+aMHAuLMCV8bez5wg4/7JcVGPzcGQ6NKscN4bRiVpbLi7MVna2Yxc2iNtnjbssADQZnRHQaSis0zSc2xOaC6DRsdCyWIn9BGhA5415LAIK1DPT31EoRC2ZddVwuY30MqVw4wYTjv3IHH0oAgkAhxuDGc2hrakSxCkSEztEZW6zArGHdQUoAguDfyG/rFNOeEjUc1oBIQA0iVkSuCvExe1gJwLcLPDjxqYgGejUsLPaMuhrFRaaGkSVyP787Yah7I8x1vo40JdMQ8wVRp+lkh9grEfsMcnFmG6QQH33XRIPCmX+djjvdCtESdbbuchV0IObMElqnRphXF56NQvdX5uA1/xE5o2U+gxcMWpECEDoEemFXLqITC5ibIdHcCcoCYsRZksgLqgo63i+EH0pYFp+sZxYp5MxH3zGDbQTqvDE23KMrPpMVCm441Ghna0Ehjs4YGep/Cb/BaUWpLNFjoXSzZASW5NE5IokV4uwOyb6LCExUUgzyWeoG64I4FKmoI/g8Jqocyi1duMAHrQuoKZaJzrDMwycsq0kF0+R61XGx2YrjelI5vz13iW5frEwpAcj5nTIEC5CzGbfQ2YSTU8F+ouOz5LpMllivEhXrSJsg8Etow0vpTFaxoX2iRkTDwkBmNCiHT0i7H8XMZuh6N6uUxfpXDs0oOsySHrywgmSq64QbBSoLKcy0mnFulQHTtkpLVDSXqrFLpewF2qocYekYogHjwdnguE6Jz3dyOBzjTzA3swQksOaqeARViUwhh4m6Y+vbAA2X6JaxIhWxNnFWdEAbkTq97IBH47Vg+y88GH8aHCvazWpmFbVZJ5gniWRUSlsChHu4r5BzIcalDL/TkwV8D3JJzMlQlpzOdZEWryM4LQGQguwFBTjFDyIcEzJNra6sWTUWucTk9IWyLStkQslCq3SxxK0Ed50hE1mazQSe7htiWUgp4nlQdSr4WVh52YrwzWhRtW1AyilhSdoYO6sap7DPme6NR/UF+kiyH18CUmPgDcScQxmwQ9iHjIpwJTNAn/zn6lKk/YY7pSIVFxH4N1xgcgpwQbyKmplzP3xy4ACvajst2ZnJ6KWDDRRvUAzQeQjGNJBLkOGEF3ciM0oXM9KKeKIiFc8RFMy+oAZTw7IiY6Glp1FNpx223NVj4rh4BYGI6vd3NF2TSnzP4o3UgbNiLeDYaCqCQzsTpTwVuhvaXi5hAX421zDSg5jgpJYiSt7WbOqOWdAKuzpMKzMr+MXVcyyEzszJAcS1qm6WhNe1+BCe2EAkNE5mVKVr5JeCqRpeqiIhMkZmJRARr/iCsEhzyrJwlrkcVzYwEWuoeA1BOuwAxVbZ3My6ak9ALYwddpUC24N7EPoG1bX0mAf1UhVxE5/RYM3KrYQwlRCr1EbqaWlX4RIIQifFaw7M+u6GEmwl6JKfCryboCR7G+WmtYH+xtRLVawTMLIX6LWwzBeGQ8GpMlmeTTsdIWdw/d5eXqMa7HaAYptFl+gExw/YqkrTiq95W0Mesb1GXfxlPIbLlbtwkQu/zWXjhRXDM7rKzLAdnlph4XFswsF/cbZIqPooOY/XMrrn4Yf8qPCZ0I4uVvEzBvhESCtD2KSFC2lY3OWFEyVRIcInHlefJTbloKSXDPr28yumdi338+OK0DI2gj5J/fymCbESClGu4jw29xJmXCnKTonZXhBxQ/56EZGLSIfDdezOdC+GeV+Ba/WAg0zxugNlqqDbBwKfW3U1sa1RxEIuY0VBw5W5wE9lrcAqfHzhrwe8BBymqI8zrKsLAlX965UGPgMMVteEgkzxXUeG6jBbQd/DmwibLi0J/SWjt6GJqF3EQmM48ajs6sKhPQdFjpU9xLrOSae/cOHzlyqW85UGvpyBmEpKLC0+B4xqkRC1uTHSYWbGAutZE2IGGa9I2GUJC13HEgAcrS6BTYK7EPEVku1H8CoNC9yT14m5BBjXryaoNgnCl2KwcEJ8DouiVOH/ueJIiTQOduhqAz9dZlEmYhwrzgiKSQruki+Ff/prwhu5JFi2u3AVnNP4UlgJ46aBQwZYsIw8OLtCFBW6n5Cfe8/uh8L2SVUSejhVCKnXkhCjyBoiL14QEBJMV41aJ92BA3cVuwAXjMvqArzK5OWu/dZ34Y6mUGSAEYp8T5ASXSVS1AhwOywZjnZw+6uCkwZsEuvjy1DIoCTE4LOlD4LF9pQoJUPjRIlWfvAfHEHApT2Cdfno/4s1ykpW1ClRBwIiI3xBqLmCAmBXIw7USIiCpW18wvSv96cV+QafpTCwRv4NztEqXXRZicICL8JhIQ9wThc2u1lwAjdnsH4TQGIMiRBdOO7s1BlhxuAbVnVpKwmrcgnsOId4nfxuZ154YuYcxibKShz+BdjwCbbkgax84WxP/NWD6JDoqGC6zK+Up8VtGyPRp03mYh1rG2Ny0DeXlrlLNdKMHXwN5Ojgwo60EQ6U7LjTTQDPqfs9BWl3Pgb1rGFSzt7Lr4phVTjyWj+mWVTU0cmI4Uksx1aC3oWDL6TksguFm/Eog+4I8nwe+1t5DNOChxRWUlXFit1kAsYwO7N+OJMFfF8TYx4x84kLSlbi4PXg/NxZpTU8n1WeXuZU+uIu0NzQ9yhRaHqVrb8T281lLMuJNY5rNoz8vNXlGaq2jjmcTj9SzaXbtK43mNQCC735nkwKP1XNMxUaZZ/HJ/6Tk2KXWKjDcClSdShiNP6cMz62WcunO5Bfv/ejG2i+yFPoRdxmzBFCwGzESs1GE7ZXkDmbiXjGNhHhLTr7AQg0xuc2S7G9jLsIRvUlgW9PiLnhEyLSSdwj+4PPj5gqXvpTTBrEoM7iX3i1iv7A3lY+nksN16wpU+SsofUWLfOOQTlDCs9NhmKzjruY6tQ4K3WwowhOyBF8TMgeScFoJ9KGFrunD8EbfY8On3aJjmyVn1C9BA5/nfjTZfgD5vFeCk6Af262tWwzhNAOYXOLHhTvNrHriMsutv+0SCpyn9oMxeY56uSsiL4PEqmkrNlkavM75jko83Da4+9hN8kqrP2BY+iLvawScbLKnC2mRmXge/4tG5f8FBe69nT748aoFuWst0BnklWegR/gQSZGT0lWbX5CZ5eaJPSU8slrKD8N81gHHxZRcb9Vk59QfU5xn1cnfcoR0Vzy80D+UAxE+1EledMM/gsmkIupx9H8GlxFHZ6fzJ6HOlhAr3vFcHSY4NY5il/b0MWT6Az723P4jJ+Mb+KXReQKda+6G9JzuZ/g2pz9y4MGnHhy/itxsnhm6JXV+5IHfo8lFNDkKHQDldpfStEG9ncZQuDM7RMmDVZEfPbxQ5ZCVdeXvRXhyfgNroVp33OEgNECPmPTC4raFWUqdNMJPZIiE0/Q6eLZIrG2rC/jmQ/j1c9VqKrEnvMTlIfSc3Qz60/BDNpM4Urdq74MPYlTna9Q/VX3mEy5Pk85RXnH3zlj+KYAiO/M2IgwU131OJ1bS0XPOQtV1e36Iorn5mfSmMQCHABmC+dOF9c4w3PaeZoTi9AsDZNqJ88yF6q/VLZyvqYurLfyK/n4wk8rzBq+H5WM20FinsMXEK4SJCdsLs5+uDhS6aorLV+48venyJsHk1T41ggUfghbZuzz1IRAhf7Xf0g6tEWAu4zh5DmumzhE0rmvgmXR+S0bZlIfMuhf1DfFzj24mC2Cf0cQ/q2UM/GnZK8kqvpFnQj/UJTmwuLTWEKA7Q+c30i0zpo4nj42tzvFg7nqFwcTY4L4Kn39T/NWstm2ADDvSsmZ+K7EEMiIupPn4nYJZNVbdAr/9VzMFgBu79qcid8coqW5XRTzzlCEI4zFZ/ghvrv5n9NJLWVLAG3W4DvGK7NLgNBkr2wMob4uuDzocvr084ktJD2KFjVIO5kIQruTWO5kRGsBKNSQzjiiFXaYkZtHwdZQyZW4haDe10TIMctXm5iJ2bZcsRMeLNLsiaTdNcrjWGIKKFaLGkI7LsSiSI/7nhLgMIo1T4HFLIXrD5FxyfBrJ0KwV7IzJFvzJXg8jFpQJMoV0mVwKROZNtxYLOUhAgsESpLgvOMP6bSDx12rBwVPuJgZKZyN49Zw6UH0hKHkadPxP7KbgzucVzscXV+ySIi7nYipxrisUqLSofXtAIcAnsZGsWVZsCWunCkSuAp5cC0H6x9+IJRZdzwtu6ge/O4An4WkEapkz2WLy/bKrCuvGZEFbRMYcRwCJmbnhKUKYbpnFA0lwe2vJvMxwP98EwMXZk4Zzd/dduqp7P02TqSTmEXooOzoj/8mo+dOnGlJo00nohW1rqsKCmXN5ClyGF03+wWg0XaMWm6To9hz7n/kmaWaUsA/vLIoeSPidofwy7WaO1N5L6AZdjGZZ9KORYupjCDgvkQUlWJSLc9XuwtQcbqgbYcdqYiPAPh0BTtPicNRfRHRI3nyMRYwYYEFNMkvNCuhxAXzJRfES6QIswC7kA/lNngDoibcyeF0HDH1T6MQzqbEIS3ES1AvDBysmD7L+A/7UrSormQ46iiatunCFtyKWtSuRu4mmk6lzzYy4eZxMPIyT0dq5kBwBoi7wBk5VEELq9hRQXOZNpank85LpBZz2+N9nTU9UovcDdtnFMW7fpEQ8IsrBIGRo0VXo8D/a3nDoFFQo5taxbvyZZGAmnXxt6gxvKPwzyMBEowsRfElCOZdXo8nn9pBVd08cFrsqNM6/tOKBTYLzg9ercr1GEfAAqZuXLLa8pHIwjBIML4yC4i5WlJxGffz15zIBfq3kq6fexYHNq4LNK5b08eZjk7woUk3EV+eFYbGqkjky3/8Wv67ITOyPsVn1JB2wriuS7EKoytOOYfrbsOXgyUCwfO5gXzn1wniudD7+UlHfboIxlC6kKod0mcs0HbeZ1b9/Ad7U9Y5cDCAzc7H513FyJYXZT+GC71GnVxcz6nphfyIu9GJm5YJw8xEoaAiIuJEVY8UaBbhMP9cVUj+UlDkoXD7+dPFZZIwJbE77RmxI9anX9NEqlyCGMuGBfcY6Z8zB8P9jF4nywbm2QWlWivFXhZ8fE4rCV5Rov+M+EiuQBqIEeEQZzH+RUV9Tti2uJ2rulYcVquKYCfdRVLWxdUVHqXtE1ev3aFBEA7YGQ4Fj3BHZuNQv5sHKpmHPYwwM4fyTiz8R6OI7xDkdaI6nUgwo9nRZoLUODintjUFg1fM+bRIn9EAN2QjLsJVQZl4beRrWCnHwZtNeiZfyd4P21zuTEiLLSJS60J4AwsWgW+AW70wfN+sWgr9Mdw0tY+uYjOXWw0k32t80bkYBam3YH0yJLUrLPDTVnqyRyEgX1YWjkTN7qtxc0A7L6tycDDsbYMFPkBtvhoKKys+tem0iTtt52jgjxDcl52XgAwPgkUVO4hQBZWrkAMf8Yl8p03cdA3jQ4kEcFDfN60dkEFhux8iBA8fQDnk8D9N9F15PG118b99aeFx3BIb4MTs9Kvh2lsB7Q4kKVhbWJhvv3KXJpGnwpjn+JO0w02+5NjawqyeYZdNzW/NZMQk7rbrQxCrH9b3I5YMt46KCO2y+lsSNtu1POMkspWU2t1lTRRlI2ck/G1gOWEGiU5BnnqkOjZfOjn2Tsvob8DZorYx03jvMs8eFp5wsy0HX7m48kRaAbT7AqbP+9o4v3j2GEctNT222YoNrpGAMEX0Jq3Zw4K1dEbW/JDWhqtR/uhwUlg/9ENBvfw8zBpfhS2Tv7lyu0by/gQkzLAGmCku3GYPC1Qz34+44NiXpJX7qqh3ZFxQl0q+zL+i0f0f/rcSj2xJfqaSSCBEkjVrGB2GrCslbEJGnFBRzXf6RZAJPCIySdNZtn7j/GYd5u9FoRC5B3fWsJuwwJEyShUzux32scn5TsciJUZn+mxzFGvUfghBNKAduOV8zrjvPd7T/iWEw49YJG3IYnd6CmsyFNs1lAaiiHLRZoxArbfZS0ZtWvkRtiw4NgpwmLBzjvzEFjScn8MRbJJI4Rrs8DtDSL3N4iAVI9MiH5vGHzrJgha3iR5yPGzzE320558+HhMVTET66TyaKTzQWHQS58sOr/g7f0iOGsFPZo0SUq3j3WQnNutU7fnHhC2RyidCBXQ7yLdAoRkSerpJ34Ok46rW2P/XXXybqdvITqRqP5ZFIk0VVW7Q/3k8X2iOxG6BuJsmW6ni+JDBu+7crJP8+XHRiz5iLoc2merbyk3UKrnJPeXwjmrT/HFZMA8hADGHtpkK3e6gNw6jE/N/6L+WeeivhHKGoE+h+51DosIzf7v9nlLUf8nSX0L+M8VPi4HoOHBrzSC6Cs+ELA73BtpJLX+hb5Sd2Cb4T+NiMKLznyy55OZ3yMSOXfxNvnf4tEg6G2YPzTY/kfCqn8piQCoJum2GUMo7O3Kie7F7Ar8IocMn1kXqRIc8/etU1nH/sRiWxsDlCsk2TXkz0JPY5OqTB20TfFnVlqip+kOJNCg+VwA667gSCINImqlPlRU3OndG7gGJ7YNJNVPxVQOJwVydvKDUC25Ud3d9FaSBtPmdpVhHuTP3+jckVRkXvWaVdPXrnOOqOP8ZVF9yIsbMLElOF0BIfhrElhHp/3+MYu4CCTBWk4qZT2MNSOrxTwb1zxJ6Thooe7oFs3aCyarho34GnU3ePunnOup987nje9GAUhOr+7AZsjd3xTH45zNPwJI2pWMTztyLztEM7fMAI5g/G2CBGkgqBCBojB34U8YwTp/B9HQ1D83hq+jtPHef0PlnrGmYewjGklNfx5cm1hE8km5GRQlZxog9ZjI88S5bnr58BHP/wSjwCmC0SYSK1AfimGbu3sgETE0DyBdxO8TTlmUwJNYyfIsBXlVUQAWERmkRx7MDciykyiLgYn3/T6fkGFNV1VyGROPSRQW+CHOfsf5K3IGS0LTi+qCrhJBn69xhbwFE28WJgbrQRDq4qK1q47uS45lU4Otwm4mdzNzMs+e8YfIGwCaGj41P41Al6n0MM3HCNDtQrb1lOXUVM5cKWcaA8wyDz5eugwFQmCquNnVkooKhjc74gDv48riD8HTmIbkTfXPgUxHGWQVGOtdECj1xhjee69RY4rIisMQWiIzP3zvhWwWO0AImeH7MbKWOlF9/PNDjzlXG1mREljfh3bg++oR3TGximI7NPQp1InZWkTcPBFCJetPpuBO48+3d8mZJ0gAcr983sY01ioLdvWIw/vh3ejCram3g3dB9c2PDMxBhVQb823+Egmk8WTPSXwKQCM4hYKLXVUKioDmp7tcdsXahY1+S56q2Zf4OnHFhwjtm8DNqyTMjSKCuEmb2EtDzB9CXHEv1p8sHqrBx7VKYvn/TzvkPWZ/eNdF0QfQq2BoNnDALgwNhYAebmxiGEVLe1OZm2YrcM/+H3YviRvfJEsj0pCqReCttE4nfFKuI4bhgrnC1dcKhHChIRZzw+Yw31QF/3Br4Z//dspBMOsMXwnv2W2ZmgTGpdDKnvKQHA1ZBPxICnzFqMJCgxg3TyhGVrwmKAeKBlSjU4ucE1AaFY2brNcdAYGLViRUnQjUbmvlA2u/+LzYoWN1/+iK48QlP+Pr+DfGYyCkoF1j1syrlGQ0VVUJ8yJSsGCduUAkvYjEN5sv/zTAmnav0AGigzFUXcXrufJX4z7Zmf5pXVNjOyM1eKtCJpU0VtSdOQSSnHW4gjKmQoMSNyOUmSTGDBkjIFHExvH2on2os0ECszAAHkerjxpLPpjOuthtHFcMrppox9k/2ekhgE1HwqKg5oEMTfXL97/vkRLEuvae2M0uEv1cNpZUu51CSiKPRJMUsgP1Fx+2miEVwjtZrRFXAMgYUcP9paQuqUTO0to4NBE8CDB+ACzxQXcohnQpUqeRqjlkPodhVSQxvlHgtUTE0Q/NSLU6JjMGnIg9V4a0Jcn20TjrqbEHDmylvjZOw72kgXkit0JRufldoRbPOen6XIJHohxtmUYq9D/FaomKoyaGUeVXKuyHLGBgLMomc+0nF7FktLCSqbIKSN+fqYPfDLPVLB9VNoqehjiMRN8Tf9ERXr+MMb6A6JisGPmKcmWbJQiIIbQge9ordGjrQwAqQdQoC1e0nsOQNsLIIXko9m//2XoB3pkdMQVNBbLMfghfLdO0mSTG2LyVewIiMG9pmdGLEsXTRc8f1LPA+3YSj/tXm3IJAVGHwYme1KtR/r1+hQ5izXsjDF9/Y1/0AWQj9porpqqiYeNYLNj5nG52xgNK4mRFxx4T8qD55b7SSLhEMDfHmfOuAfc2MqM9fZjZahbvmYZOZV+oPXWwVyZFeIdASuBGQqljFxxDKVWwjXcB52iqTm3Mlx3JwPLMiTuoZlPl8wwKy1eOCR8i/xy8095J+NSa+yLHZRGJmll4MVUAMJciK4Q8ZL+i7SFJw4njz8eBPZUSE9bzGZubouRpbiVCkni94Fcl7sAoMyoLB1fTiWf9RLf8KigUkK/Y78WAFDSkSqOpUoA/B5tKTcpfK6rgY08mEELzc9BwzHEij7HqvwEDU+7fp59fEYiV0+ypWFMWD3zBJBVxA4bBQJ7FNWqrv48vgvQoth98TqnJ64GLlOhDgfn5uvn0VKwsx8BVUJi695zY0OzgO5ugArSq76LqUL3jJ1G+wr1EpQtQ/zQgq2JL4pbOUtDHc96AYUo8UxcoFQ8+mYa8yUp9vAgFIvK0R/8IpoAGMTYcdlobZkCtfk/A76uKh3CAAG5WKlZpUkmLFgtFkE77mg3p7vqm6kH1YO8MVEdX7AfBR/pcIuGnQCLIbdLWDADME0f+FatDuzq9p+F1s89N5kmKlXLzZxjInYjypnBFLXV5WAhN1iAXQC8Z7tMl/YzEMQsMgzQhCMnAMgabKrzTFCkaM4EaSVIMmaFfCNqwAM8esX6zUuWwEQoyMAP+aOuHBMExYVsv1a2/FigODf9xBD6qNuMmYipKq0DXRY8yXK/U9M5gqbpitK/42cDCwK0ZF3kQFf7QKZwwJ+3sWlc9Sd8dtf8VKA8N/3moPGJEK204jpDqRv1TSzZvRLdtnCw9/xmUqumTkC1chmNY4nuBHFf+1twQ5ovhnGSBq/CkxvZNaFhHnBSe1T4yXAnnOLLbalAFUhsgSlgCtRHhcx2fmHK/zhpMvns8yjGA1J8G6WR26STE7GRVckeAof3qeNTprsgwDnvUuEFxWIkJIVzLWiO/KLGNeZJ5lGMdEydnqzlVW0yr1/n9kz8u3BYGt//TT2510ODUyph7es+ZlTUlAfw7ialeMZlWq/9qVZc2SN9uigMoAbsSA+njPk2T8F3QXBjbxTuF8WgxGFf/xL5YzP/KqOKCa8BnoeCjoV8ugpZzDwBfXw+9Xr1L68q95IuGjSWUdxjXxx/4I8KNfMiVttlEuUIEuJvSXnLyaXIHmH0b4w98/TlMh+hPx2zhZYfATVMYVCQfKpJFHOjhhYbR/sMf5J0IuPCKOnLCJ0xWsHc9f2TTQyUlodsLCdAxQ/TnIQ2WxQMkjSg6TIyjG0emyCU5T9REEOWFTdjjLBKhusIdBTMv/NpSiOYbikmZHdJj4LDMGtUFmE77xeBxBXIwIqhsZZs5J4W15DLOj+wOdU9J++vxvQkyPIbbtKP/0cmR61Vb07UhtM9njGB70VJTs7CjCFiOf3tu4WdXGSQiNTY8k7I/T0MwuJkczNe3pvMzMzNrTz2T7shP6ZDY5rmnatCektcfy/eJ080bH+GXVRXuiWWgs4Y2O5/tac4pZ2k6Odqq0aX3S5r0kZmbxx+S4p+rAf/57L4npxXxySk/V5MSefvqPn/7jp//4/w2AAQ==;" vertex="1" parent="7">
                    <mxGeometry x="450" y="88.38" width="280" height="211.62" as="geometry"/>
                </mxCell>
                <mxCell id="16" value="" style="line;strokeWidth=2;html=1;fontFamily=Lucida Console;fontSize=22;fontColor=#CCE5FF;" vertex="1" parent="7">
                    <mxGeometry x="10" y="180" width="80" height="10" as="geometry"/>
                </mxCell>
                <mxCell id="17" value="" style="line;strokeWidth=2;html=1;fontFamily=Lucida Console;fontSize=22;fontColor=#CCE5FF;" vertex="1" parent="7">
                    <mxGeometry x="10" y="210" width="80" height="10" as="geometry"/>
                </mxCell>
                <mxCell id="21" value="60" style="text;strokeColor=none;align=center;fillColor=none;html=1;verticalAlign=middle;whiteSpace=wrap;rounded=0;" vertex="1" parent="7">
                    <mxGeometry x="17.5" y="130" width="60" height="30" as="geometry"/>
                </mxCell>
                <mxCell id="20" value="60" style="text;strokeColor=none;align=center;fillColor=none;html=1;verticalAlign=middle;whiteSpace=wrap;rounded=0;" vertex="1" parent="7">
                    <mxGeometry x="17.5" y="160" width="60" height="30" as="geometry"/>
                </mxCell>
                <mxCell id="19" value="60" style="text;strokeColor=none;align=center;fillColor=none;html=1;verticalAlign=middle;whiteSpace=wrap;rounded=0;" vertex="1" parent="7">
                    <mxGeometry x="17.5" y="190" width="60" height="30" as="geometry"/>
                </mxCell>
            </root>
        </mxGraphModel>
    </diagram>
</mxfile>